<?xml version="1.0" encoding="utf-8"?>
<!-- Generator: Adobe Illustrator 21.1.0, SVG Export Plug-In . SVG Version: 6.00 Build 0)  -->
<svg version="1.1" id="Capa_1" xmlns="http://www.w3.org/2000/svg" xmlns:xlink="http://www.w3.org/1999/xlink" x="0px" y="0px"
	 viewBox="0 0 63.5 72.6" style="enable-background:new 0 0 63.5 72.6;" xml:space="preserve">
<style type="text/css">
	.st0{fill:#101335;}
	.st1{fill:#FFFFFF;}
	.st2{fill:url(#SVGID_1_);}
	.st3{clip-path:url(#SVGID_3_);}
	.st4{fill:#8F9194;stroke:#FBFAFA;stroke-width:0.75;stroke-miterlimit:10;}
	.st5{fill:none;stroke:#FBFAFA;stroke-width:0.75;stroke-miterlimit:10;}
	.st6{fill:#FBFAFA;}
	.st7{fill:none;}
	.st8{fill-rule:evenodd;clip-rule:evenodd;fill:#001335;}
	.st9{fill-rule:evenodd;clip-rule:evenodd;fill:#3DC2EA;}
	.st10{fill:#001335;}
	.st11{fill:#3DC2EA;}
	.st12{clip-path:url(#SVGID_5_);}
	.st13{opacity:0.8;fill:url(#SVGID_8_);}
	.st14{clip-path:url(#SVGID_10_);}
	.st15{opacity:0.8;fill:url(#SVGID_13_);}
</style>
<g>
	<g>
		<path class="st10" d="M53.2,59.8v-7.8c0-6.5,0-13,0-19.4c0-0.6,0-1.4-0.3-2c-0.7-1.8-1.9-2.8-3.8-3.1l0,0
			c-1.2-0.2-1.5-0.6-1.5-1.8v-2.1c0-1.6,0-3.2,0-4.7c0-0.9,0-2.1-0.2-3.2C46.2,9.5,42.9,5.4,37,3.1c-1.2-0.5-2.5-0.7-3.8-0.9h-3.1
			c-0.2,0-0.4,0.1-0.6,0.1c-0.5,0.1-0.9,0.1-1.4,0.2c-2.7,0.6-5.1,1.8-7.1,3.6c-3.5,3.1-5.3,7-5.4,11.6c0,1.8,0,3.6,0,5.4
			c0,0.8,0,1.6,0,2.5c0,1.2-0.4,1.6-1.6,1.8c-1.4,0.2-2.5,0.9-3.3,2c-0.6,0.8-0.8,1.8-0.8,3.2c0,4,0,8.1,0,12.1c0,4.4,0,8.9,0,13.3
			c0,0.9,0,1.6,0,2.4c0.1,2.4,2.1,4.4,4.5,4.4c5.2,0,10.5,0,15.7,0h12.2h6c0.8,0,1.5-0.2,2.2-0.6C52.5,63.3,53.2,61.9,53.2,59.8z
			 M19.5,17.6c0.2-4.4,2.3-7.9,6.2-10.1c1.8-1,3.9-1.6,6-1.6c4.8,0,9.1,2.8,11.1,7.2c0.7,1.5,1,3,1,4.6c0,1.5,0,3,0,4.4
			c0,1.3,0,2.5,0,3.8c0,0.2,0,0.7-0.4,1.1c-0.4,0.4-0.9,0.4-1.1,0.4c-1.9,0-3.8,0-5.7,0l-5,0l-10.6,0c-1.1,0-1.6-0.4-1.6-1.6
			c0-0.8,0-1.7,0-2.5C19.5,21.5,19.5,19.5,19.5,17.6z M49.5,59.6c0,1.1-0.4,1.6-1.6,1.6H15.5c-1.2,0-1.7-0.4-1.7-1.7V32.9
			c0-1.2,0.4-1.7,1.6-1.7h32.3c1.2,0,1.6,0.4,1.6,1.6V59.6z"/>
		<path class="st11" d="M36.1,42c-0.6-1.9-2.4-3.2-4.4-3.2c-0.1,0-0.2,0-0.2,0c-0.1,0-0.3,0-0.4,0c-1.9,0.3-3.5,1.7-3.9,3.5
			c-0.4,1.9,0.3,3.8,1.9,4.9c0.5,0.4,0.8,0.9,0.8,1.5c0,1,0,2,0,3c0,1.1,0.8,2,1.9,2h0c1,0,1.8-0.9,1.9-2c0-0.9,0-1.9,0-3
			c0-0.7,0.3-1.2,0.8-1.6C36,46,36.7,43.9,36.1,42z"/>
	</g>
</g>
</svg>
