<?xml version="1.0" encoding="utf-8"?>
<!-- Generator: Adobe Illustrator 21.1.0, SVG Export Plug-In . SVG Version: 6.00 Build 0)  -->
<svg version="1.1" id="Capa_1" xmlns="http://www.w3.org/2000/svg" xmlns:xlink="http://www.w3.org/1999/xlink" x="0px" y="0px"
	 viewBox="0 0 63.5 72.6" style="enable-background:new 0 0 63.5 72.6;" xml:space="preserve">
<style type="text/css">
	.st0{fill:#101335;}
	.st1{fill:#FFFFFF;}
	.st2{fill:url(#SVGID_1_);}
	.st3{clip-path:url(#SVGID_3_);}
	.st4{fill:#8F9194;stroke:#FBFAFA;stroke-width:0.75;stroke-miterlimit:10;}
	.st5{fill:none;stroke:#FBFAFA;stroke-width:0.75;stroke-miterlimit:10;}
	.st6{fill:#FBFAFA;}
	.st7{fill:none;}
	.st8{fill-rule:evenodd;clip-rule:evenodd;fill:#001335;}
	.st9{fill-rule:evenodd;clip-rule:evenodd;fill:#3DC2EA;}
	.st10{fill:#001335;}
	.st11{fill:#3DC2EA;}
	.st12{clip-path:url(#SVGID_5_);}
	.st13{opacity:0.8;fill:url(#SVGID_8_);}
	.st14{clip-path:url(#SVGID_10_);}
	.st15{opacity:0.8;fill:url(#SVGID_13_);}
</style>
<g>
	<g>
		<g>
			<path class="st8" d="M38.3,55.1c-0.5,0-1,0-1.5,0c-0.5,0-0.6-0.2-0.6-0.6c0.1-3.1,1.1-5.9,2.5-8.6c1-2,2.2-3.9,3.3-5.8
				c1.2-2.1,2.3-4.3,2.7-6.7c0.8-5.2-0.9-10.4-6.3-13c-2.8-1.4-5.9-1.8-9-1.3c-3.4,0.6-6.2,2.1-8.2,4.9c-1,1.4-1.6,3.1-2,4.8
				c-0.7,3.8,0.5,7.2,2.3,10.5c1.4,2.6,3.1,5.1,4.4,7.8c1.1,2.3,1.8,4.7,1.9,7.3c0,0.7,0,0.7-0.7,0.7c-1,0-2,0-3,0
				c-0.4,0-0.5-0.1-0.6-0.5c-0.2-2.6-1.1-5-2.4-7.2c-1.5-2.6-3.2-5.2-4.4-7.9c-1.3-2.9-2.1-6-2-9.2c0.2-4.4,1.7-8.2,5-11.2
				c2.2-2,4.9-3.3,7.9-4c5-1.1,9.8-0.5,14.2,2.2c3.7,2.2,6,5.5,7,9.8c0.5,2.4,0.6,4.9,0.1,7.3c-0.4,2.1-1.1,4.1-2.1,6
				c-1.3,2.6-3,5.1-4.3,7.7c-1.1,2.1-1.9,4.2-2,6.6c0,0.4-0.2,0.5-0.5,0.5C39.4,55.1,38.9,55.1,38.3,55.1z"/>
		</g>
		<g>
			<path class="st8" d="M26.3,57.1c-0.3,0-0.6,0-0.8,0.1c-0.7,0.3-1.1,1-0.9,1.8c0.1,0.8,0.7,1.3,1.7,1.3c3.9,0,7.7,0,11.5,0
				c1.1,0,1.8-0.6,1.8-1.6c0-1-0.7-1.6-1.8-1.6c-1.9,0-3.8,0-5.8,0C30.1,57.1,28.2,57.1,26.3,57.1z"/>
		</g>
		<g>
			<path class="st8" d="M37.6,65.3c0.4,0,0.8-0.1,1.1-0.4c0.5-0.5,0.7-1.2,0.4-1.8c-0.2-0.6-0.9-1-1.6-1c-3.7,0-7.4,0-11,0
				c-1,0-1.8,0.7-1.8,1.6c0,0.9,0.7,1.6,1.8,1.6c1.8,0,3.7,0,5.5,0C33.9,65.3,35.7,65.3,37.6,65.3z"/>
		</g>
		<path class="st9" d="M61.4,32.7c0.5,0,0.7-0.2,0.7-0.7c0-1,0-2,0-3c0-0.4-0.2-0.6-0.6-0.6c-2.5,0-5,0-7.5,0
			c-0.4,0-0.6,0.2-0.6,0.6c0,1,0,2.1,0,3.1c0,0.5,0.2,0.7,0.6,0.7c1.2,0,2.5,0,3.7,0C58.9,32.7,60.1,32.7,61.4,32.7z"/>
		<path class="st9" d="M10,32.7c0.4,0,0.6-0.2,0.6-0.6c0-1,0-2.1,0-3.1c0-0.4-0.1-0.6-0.6-0.6c-2.4,0-4.9,0-7.4,0
			c-0.5,0-0.7,0.2-0.7,0.7c0,1,0,2,0,3c0,0.5,0.2,0.7,0.7,0.7c1.2,0,2.5,0,3.7,0C7.6,32.7,8.8,32.7,10,32.7z"/>
		<path class="st9" d="M13.6,43.1c-0.5-1.1-1-2.2-1.5-3.2c-0.1-0.3-0.4-0.3-0.6-0.2c-0.5,0.2-1.1,0.5-1.6,0.7
			c-1.6,0.7-3.3,1.5-4.9,2.2c-0.4,0.2-0.5,0.4-0.3,0.8c0.5,0.9,0.9,1.9,1.3,2.8c0.2,0.4,0.4,0.5,0.8,0.3c0.7-0.4,1.5-0.7,2.3-1
			c1.4-0.6,2.9-1.3,4.3-1.9c0.2-0.1,0.4-0.1,0.4-0.4C13.6,43.2,13.6,43.2,13.6,43.1z"/>
		<path class="st9" d="M58.6,16.9c-0.7-1-1.4-2-2.1-3c-0.2-0.2-0.4-0.2-0.6,0c-2,1.4-4,2.9-6,4.3c-0.2,0.2-0.4,0.3-0.1,0.6
			c0.7,0.9,1.3,1.8,2,2.8c0.2,0.3,0.4,0.4,0.7,0.1c2-1.4,4-2.8,5.9-4.3c0.1-0.1,0.3-0.2,0.3-0.4C58.7,17,58.7,17,58.6,16.9z"/>
		<path class="st9" d="M14,18.2c-1.9-1.4-3.9-2.8-5.8-4.2c-0.4-0.3-0.6-0.2-0.9,0.1c-0.6,0.9-1.2,1.7-1.8,2.5
			c-0.3,0.4-0.2,0.6,0.1,0.9c1.9,1.4,3.8,2.7,5.8,4.1c0.4,0.3,0.6,0.2,0.9-0.1c0.6-0.9,1.2-1.7,1.8-2.6c0.1-0.1,0.1-0.3,0.2-0.3
			C14.3,18.4,14.2,18.3,14,18.2z"/>
		<path class="st9" d="M58.9,42.6c-2.2-0.9-4.3-1.7-6.5-2.6c-0.4-0.2-0.6-0.1-0.7,0.3c-0.4,1-0.8,1.9-1.2,2.9
			c-0.3,0.6-0.2,0.7,0.4,1c2.1,0.9,4.3,1.7,6.4,2.6c0.4,0.2,0.6,0.1,0.7-0.3c0.4-1,0.8-2,1.2-3c0-0.1,0-0.2,0.1-0.3
			C59.4,42.8,59.1,42.7,58.9,42.6z"/>
		<path class="st9" d="M48,6.7c-1-0.5-2-1.1-3-1.6c-0.3-0.2-0.5-0.1-0.7,0.2c-1.1,2-2.2,4.1-3.3,6.1c-0.2,0.3-0.1,0.5,0.2,0.6
			c1,0.5,2,1.1,3,1.6c0.3,0.1,0.4,0.1,0.6-0.2c1.1-2,2.2-4.1,3.2-6.1c0.1-0.1,0.1-0.2,0.1-0.3C48.2,6.9,48.1,6.8,48,6.7z"/>
		<path class="st9" d="M23,11.5c-1.1-2-2.2-4.1-3.3-6.1C19.5,5,19.3,5,19,5.1c-1,0.5-1.9,1-2.8,1.5c-0.4,0.2-0.5,0.4-0.3,0.8
			c1.1,2,2.2,4,3.3,6c0.1,0.3,0.3,0.3,0.6,0.2c1-0.6,2.1-1.1,3.1-1.7c0.1-0.1,0.2-0.1,0.2-0.3C23,11.6,23,11.5,23,11.5z"/>
		<path class="st9" d="M34.3,3.6c0-0.4-0.1-0.6-0.6-0.6c-1.1,0-2.1,0-3.2,0c-0.4,0-0.6,0.2-0.6,0.6c0,2.1,0,4.3,0,6.4
			c0,0.4,0.1,0.6,0.6,0.6c1.1,0,2.1,0,3.2,0c0.4,0,0.6-0.2,0.6-0.6c0-1.1,0-2.1,0-3.2C34.3,5.8,34.2,4.7,34.3,3.6z"/>
		<g>
			<path class="st8" d="M26.9,67c-0.2,0-0.4-0.1-0.5,0.1c-0.1,0.2,0.1,0.3,0.3,0.4c0.8,0.8,1.7,1.5,2.5,2.3c0.5,0.5,1.1,0.7,1.8,0.7
				c0.6,0,1.2,0,1.9,0c0.6,0,1.2-0.2,1.7-0.6c1-0.8,1.8-1.6,2.7-2.4c0.1-0.1,0.3-0.2,0.2-0.4c-0.1-0.2-0.3-0.1-0.4-0.1
				c-1.7,0-3.4,0-5,0C30.3,67,28.6,67,26.9,67z"/>
		</g>
	</g>
</g>
</svg>
