<?xml version="1.0" encoding="utf-8"?>
<!-- Generator: Adobe Illustrator 21.1.0, SVG Export Plug-In . SVG Version: 6.00 Build 0)  -->
<svg version="1.1" id="Capa_1" xmlns="http://www.w3.org/2000/svg" xmlns:xlink="http://www.w3.org/1999/xlink" x="0px" y="0px"
	 viewBox="0 0 83.1 72.6" style="enable-background:new 0 0 83.1 72.6;" xml:space="preserve">
<style type="text/css">
	.st0{fill:#101335;}
	.st1{fill:#FFFFFF;}
	.st2{fill:url(#SVGID_1_);}
	.st3{clip-path:url(#SVGID_3_);}
	.st4{fill:#8F9194;stroke:#FBFAFA;stroke-width:0.75;stroke-miterlimit:10;}
	.st5{fill:none;stroke:#FBFAFA;stroke-width:0.75;stroke-miterlimit:10;}
	.st6{fill:#FBFAFA;}
	.st7{fill:none;}
	.st8{fill-rule:evenodd;clip-rule:evenodd;fill:#001335;}
	.st9{fill-rule:evenodd;clip-rule:evenodd;fill:#3DC2EA;}
	.st10{fill:#001335;}
	.st11{fill:#3DC2EA;}
	.st12{clip-path:url(#SVGID_5_);}
	.st13{opacity:0.8;fill:url(#SVGID_8_);}
	.st14{clip-path:url(#SVGID_10_);}
	.st15{opacity:0.8;fill:url(#SVGID_13_);}
</style>
<g>
	<g>
		<g>
			<path class="st8" d="M41.4,3.8c11.5,0,23,0,34.5,0c3.7,0,5.8,2.1,5.8,5.9c0,13,0,26,0,39c0,3.7-2.1,5.8-5.8,5.8
				c-7.2,0-14.4,0-21.6,0c-1,0-1.3,0.2-1,1.2c0.6,2.5,1.1,4.9,1.6,7.4c0.2,0.9,0.5,1.1,1.3,1c1-0.1,2,0,3,0c1.1,0,1.7,0.6,1.7,1.6
				c0,1-0.6,1.6-1.6,1.7c-0.2,0-0.3,0-0.5,0c-11.6,0-23.2,0-34.8,0c-1.3,0-2.1-0.6-2.1-1.6c0-1,0.5-1.6,1.6-1.7c1.3,0,2.6,0,3.8,0
				c0.7,0,1-0.2,1.1-0.9c0.5-2.6,1-5.1,1.6-7.6c0.2-1-0.1-1.1-0.9-1.1c-7.3,0-14.7,0-22,0c-4,0-6-2-6-6C1,35.6,1,22.7,1,9.7
				c0-3.9,2.1-5.9,6-5.9C18.5,3.8,30,3.8,41.4,3.8z M41.4,51.2c11.5,0,22.9,0,34.4,0c2.1,0,2.7-0.7,2.7-2.7c0-12.9,0-25.7,0-38.6
				c0-2.2-0.6-2.8-2.8-2.8c-22.9,0-45.7,0-68.6,0C5,7.1,4.3,7.7,4.3,9.9c0,12.8,0,25.7,0,38.5c0,2.2,0.6,2.8,2.9,2.8
				C18.6,51.2,30,51.2,41.4,51.2z M41.6,64.1c3.1,0,6.1,0,9.2,0c0.7,0,0.9-0.2,0.7-0.9c-0.6-2.6-1.1-5.2-1.6-7.9
				c-0.1-0.6-0.3-0.9-1-0.9c-4.8,0-9.6,0-14.4,0c-0.8,0-1,0.3-1.1,1c-0.5,2.6-1,5.2-1.6,7.8c-0.2,0.9,0.1,0.9,0.8,0.9
				C35.6,64.1,38.6,64.1,41.6,64.1z"/>
		</g>
		<g>
			<path class="st8" d="M41.5,42.5c-10.6,0-21.3,0-31.9,0c-2.2,0-2.6-0.4-2.6-2.6c0-9.2,0-18.5,0-27.7C7,10,7.3,9.7,9.5,9.7
				c21.4,0,42.7,0,64.1,0c2.2,0,2.5,0.3,2.5,2.5c0,9.3,0,18.5,0,27.8c0,2-0.4,2.5-2.5,2.5C62.9,42.5,52.2,42.5,41.5,42.5z
				 M41.5,39.1c10.1,0,20.1,0,30.2,0c0.9,0,1.2-0.2,1.2-1.2c0-7.9,0-15.9,0-23.8c0-0.9-0.2-1.2-1.1-1.2c-20.1,0-40.2,0-60.4,0
				c-0.9,0-1.2,0.2-1.2,1.2c0,7.9,0.1,15.8,0,23.7c0,1.2,0.4,1.3,1.4,1.3C21.6,39.1,31.6,39.1,41.5,39.1z"/>
		</g>
		<path class="st9" d="M41.2,48.3c-0.9-0.1-1.5-0.6-1.5-1.6c0-1,0.6-1.5,1.5-1.6c0.9-0.1,1.7,0.8,1.6,1.7
			C42.8,47.7,42.3,48.2,41.2,48.3z"/>
		<path class="st9" d="M14.4,31.6c-0.7-0.1-1.2-0.4-1.5-1c-0.4-0.9,0-1.5,0.7-2.1c1.9-1.5,3.8-3,5.6-4.5c3.3-2.6,6.7-5.3,10-7.9
			c0.6-0.5,1.2-0.8,2-0.6c1.3,0.4,1.4,2,0.2,3c-2.5,2-5.1,4.1-7.7,6.1c-2.7,2.1-5.3,4.2-8,6.3C15.4,31.2,15,31.5,14.4,31.6z"/>
		<path class="st9" d="M13.5,25.2c-0.7,0-1.2-0.3-1.5-1c-0.3-0.7-0.2-1.4,0.3-1.8c1.8-1.5,3.6-2.9,5.4-4.3c0.8-0.6,1.6-0.4,2.2,0.4
			c0.6,0.8,0.5,1.6-0.2,2.2c-1.7,1.4-3.6,2.8-5.3,4.2C14.1,25.2,13.8,25.2,13.5,25.2z"/>
		<path class="st9" d="M24.2,16.4c0,1.1-0.8,1.8-1.7,1.7c-0.9-0.1-1.5-0.7-1.5-1.6c0-0.9,0.8-1.6,1.7-1.6
			C23.6,15,24.1,15.6,24.2,16.4z"/>
	</g>
</g>
</svg>
