<svg id="Capa_1" xmlns="http://www.w3.org/2000/svg" viewBox="0 0 93.9 78.3">
  <style>
    .st0{fill:#101335;} .st1{fill:#FFFFFF;}
  </style>
  <path class="st0" d="M11.3 35H92l-9.4 24.3H1.9z"/>
  <path class="st1" d="M13.3 37H89l-7.9 20.1H5.3z"/>
  <path class="st0" d="M23.6 49.8h-1.8v-1.7h1.6l-.6-4.2-1 1.6v-3.6l.1-.2h2.4L26 52.1h-2l-.4-2.3zm-1.8 0h-2.3l-1.3 2.3H16l5.8-10.2v3.6l-1.6 2.6h1.6v1.7zM27.7 48.7l2.1-.1c0 .6.1 1.1.3 1.3.3.4.9.5 1.8.5.7 0 1.2-.1 1.5-.4.3-.3.5-.5.5-.9s-.1-.6-.4-.8c-.2-.2-.7-.4-1.5-.8-.8-.3-1.4-.6-1.8-.9-.4-.3-.7-.5-.9-.9-.2-.4-.3-.8-.3-1.3 0-.9.3-1.6 1-2.2.6-.6 1.6-.9 2.7-.9 1.3 0 2.2.3 2.9.9.7.5 1.1 1.3 1.1 2.3l-2.1.1c0-.5-.2-.9-.5-1.2-.3-.3-.8-.4-1.4-.4-.6 0-1 .1-1.3.3-.3.4-.4.7-.4 1 0 .3.1.5.3.8.3.2.8.5 1.6.8 1.2.5 2 .9 2.3 1.3.5.5.8 1.1.8 1.9 0 .9-.4 1.7-1.1 2.4-.8.6-1.8 1-3.1 1-.9 0-1.6-.2-2.3-.5-.7-.3-1.1-.7-1.4-1.3-.3-.6-.5-1.3-.4-2zM42.4 52.1h-2.1l.8-4.1-2.9-6.4h2.3l1.3 2.9c.3.7.5 1.2.6 1.5.2-.3.4-.6.6-1l1-1.4 1.5-2.1H48l-4.8 6.6-.8 4zM51.5 52.1h-2.2l1.8-8.7h-3l.3-1.7h8.2l-.3 1.7h-3zM55.8 52.1L58 41.7h7.8l-.4 1.7h-5.6l-.5 2.4h5.4l-.3 1.8h-5.5l-.6 2.8h6.1l-.4 1.7zM73.2 48.4l2.1.3c-.4 1.2-1.1 2.1-1.9 2.7-.8.6-1.9.9-3 .9-1.3 0-2.3-.4-3-1.1-.7-.8-1.1-1.9-1.1-3.4 0-1.2.3-2.3.8-3.2.5-1 1.1-1.8 2-2.3.9-.5 1.8-.8 2.8-.8 1.1 0 2 .3 2.7.9.7.6 1.1 1.4 1.2 2.5l-2.1.2c-.1-.6-.3-1-.6-1.3-.3-.3-.8-.4-1.3-.4-.6 0-1.2.2-1.7.5-.5.4-.9.9-1.2 1.7-.3.8-.5 1.6-.5 2.3 0 .8.2 1.5.6 1.9.4.5.9.7 1.5.7.5 0 1.1-.2 1.5-.5.6-.4 1-.9 1.2-1.6zM60.1 1.6L73.8 37h-26l-.7-1.6v-.5l.1.2L60.1 1.8H47.2v-.2h12.9zm21.3 54.9l7.9 20.3h-26l-7.7-19.7h25.5l.3-.6zM47.2 35.3l-13-33.7h13.1v.2h-13l12.9 33v.5z"/>
  <path class="st0" d="M60.1 1.6L73.8 37h-26L34.2 1.6h25.9zm21.3 54.9l7.9 20.3h-26l-7.7-19.7h25.5l.3-.6zM47.3 35L60.1 1.8H34.3l13 33.2z"/>
  <g>
    <path class="st0" d="M40.6 37h5.9l.4-1.1-1.9.8-4.5-11.4V37h.1zm0-19V1.8h19.5L47.3 35l-6.7-17zM32.8 5.3L20.5 37h20.1V25.2L32.8 5.3zm7.8-3.5V18L34.3 1.8h6.3zM12.7 57.1L5 77h26l7.7-19.9h-26z"/>
    <path class="st0" d="M32.8 5.3L20.5 37h26l.4-1.1-1.9.8L32.8 5.3zM12.7 57.1L5 77h26l7.7-19.9h-26zM47.3 35L60.1 1.8H34.3l13 33.2z"/>
  </g>
</svg>