<?xml version="1.0" encoding="utf-8"?>
<!-- Generator: Adobe Illustrator 21.1.0, SVG Export Plug-In . SVG Version: 6.00 Build 0)  -->
<svg version="1.1" id="Capa_1" xmlns="http://www.w3.org/2000/svg" xmlns:xlink="http://www.w3.org/1999/xlink" x="0px" y="0px"
	 viewBox="0 0 93.9 78.3" style="enable-background:new 0 0 93.9 78.3;" xml:space="preserve">
<style type="text/css">
	.st0{fill:#101335;}
	.st1{fill:#FFFFFF;}
</style>
<g>
	<polygon class="st0" points="11.3,35 92,35 82.6,59.3 1.9,59.3 	"/>
	<polygon class="st1" points="13.3,37 89,37 81.1,57.1 5.3,57.1 	"/>
	<path class="st0" d="M23.6,49.8h-1.8v-1.7h1.6l-0.6-4.2l-1,1.6v-3.6l0.1-0.2h2.4L26,52.1h-2L23.6,49.8z M21.8,49.8h-2.3l-1.3,2.3
		H16l5.8-10.2v3.6l-1.6,2.6h1.6V49.8z"/>
	<path class="st0" d="M27.7,48.7l2.1-0.1c0,0.6,0.1,1.1,0.3,1.3c0.3,0.4,0.9,0.5,1.8,0.5c0.7,0,1.2-0.1,1.5-0.4
		c0.3-0.3,0.5-0.5,0.5-0.9s-0.1-0.6-0.4-0.8c-0.2-0.2-0.7-0.4-1.5-0.8c-0.8-0.3-1.4-0.6-1.8-0.9c-0.4-0.3-0.7-0.5-0.9-0.9
		c-0.2-0.4-0.3-0.8-0.3-1.3c0-0.9,0.3-1.6,1-2.2c0.6-0.6,1.6-0.9,2.7-0.9c1.3,0,2.2,0.3,2.9,0.9c0.7,0.5,1.1,1.3,1.1,2.3l-2.1,0.1
		c0-0.5-0.2-0.9-0.5-1.2c-0.3-0.3-0.8-0.4-1.4-0.4c-0.6,0-1,0.1-1.3,0.3C31.1,43.7,31,44,31,44.3c0,0.3,0.1,0.5,0.3,0.8
		c0.3,0.2,0.8,0.5,1.6,0.8c1.2,0.5,2,0.9,2.3,1.3c0.5,0.5,0.8,1.1,0.8,1.9c0,0.9-0.4,1.7-1.1,2.4c-0.8,0.6-1.8,1-3.1,1
		c-0.9,0-1.6-0.2-2.3-0.5c-0.7-0.3-1.1-0.7-1.4-1.3C27.8,50.1,27.6,49.4,27.7,48.7z"/>
	<path class="st0" d="M42.4,52.1h-2.1l0.8-4.1l-2.9-6.4h2.3l1.3,2.9c0.3,0.7,0.5,1.2,0.6,1.5c0.2-0.3,0.4-0.6,0.6-1l1-1.4l1.5-2.1
		H48l-4.8,6.6L42.4,52.1z"/>
	<polygon class="st0" points="51.5,52.1 49.3,52.1 51.1,43.4 48.1,43.4 48.4,41.7 56.6,41.7 56.3,43.4 53.3,43.4 	"/>
	<polygon class="st0" points="55.8,52.1 58,41.7 65.8,41.7 65.4,43.4 59.8,43.4 59.3,45.8 64.7,45.8 64.4,47.6 58.9,47.6 58.3,50.4 
		64.4,50.4 64,52.1 	"/>
	<path class="st0" d="M73.2,48.4l2.1,0.3c-0.4,1.2-1.1,2.1-1.9,2.7c-0.8,0.6-1.9,0.9-3,0.9c-1.3,0-2.3-0.4-3-1.1
		c-0.7-0.8-1.1-1.9-1.1-3.4c0-1.2,0.3-2.3,0.8-3.2c0.5-1,1.1-1.8,2-2.3c0.9-0.5,1.8-0.8,2.8-0.8c1.1,0,2,0.3,2.7,0.9
		c0.7,0.6,1.1,1.4,1.2,2.5l-2.1,0.2c-0.1-0.6-0.3-1-0.6-1.3c-0.3-0.3-0.8-0.4-1.3-0.4c-0.6,0-1.2,0.2-1.7,0.5
		c-0.5,0.4-0.9,0.9-1.2,1.7c-0.3,0.8-0.5,1.6-0.5,2.3c0,0.8,0.2,1.5,0.6,1.9c0.4,0.5,0.9,0.7,1.5,0.7c0.5,0,1.1-0.2,1.5-0.5
		C72.6,49.6,73,49.1,73.2,48.4z"/>
	<g>
		<g>
			<path class="st0" d="M60.1,1.6L73.8,37h-26l-0.7-1.6v-0.5l0.1,0.2L60.1,1.8H47.2V1.6H60.1L60.1,1.6z M81.4,56.5l7.9,20.3h-26
				l-7.7-19.7h25.5L81.4,56.5z M47.2,35.3L34.2,1.6h13.1v0.2H34.3l12.9,33V35.3z"/>
			<path class="st0" d="M60.1,1.6L73.8,37h-26L34.2,1.6H60.1L60.1,1.6z M81.4,56.5l7.9,20.3h-26l-7.7-19.7h25.5L81.4,56.5L81.4,56.5
				z M47.3,35L60.1,1.8H34.3L47.3,35z"/>
		</g>
	</g>
	<g>
		<g>
			<path class="st0" d="M40.6,37h5.9l0.4-1.1l-1.9,0.8l-4.5-11.4V37L40.6,37z M40.6,18V1.8h19.5L47.3,35L40.6,18z M32.8,5.3L20.5,37
				h20.1V25.2L32.8,5.3L32.8,5.3z M40.6,1.8V18L34.3,1.8H40.6L40.6,1.8z M12.7,57.1L5,77h26l7.7-19.9H12.7z"/>
			<path class="st0" d="M32.8,5.3L20.5,37h26l0.4-1.1l-1.9,0.8L32.8,5.3L32.8,5.3z M12.7,57.1L5,77h26l7.7-19.9H12.7L12.7,57.1z
				 M47.3,35L60.1,1.8H34.3L47.3,35z"/>
		</g>
	</g>
</g>
</svg>
